<svg width="800" height="800" version="1.1" viewBox="0 0 5.8 5.8" fill_color="black" back_color="white" xmlns="http://www.w3.org/2000/svg"><path d="M0,0H0.2V0.2H0zM0.2,0H0.4V0.2H0.2zM0.4,0H0.6V0.2H0.4zM0.6,0H0.8V0.2H0.6zM0.8,0H1V0.2H0.8zM1,0H1.2V0.2H1zM1.2,0H1.4V0.2H1.2zM1.6,0H1.8V0.2H1.6zM2.6,0H2.8V0.2H2.6zM2.8,0H3V0.2H2.8zM3.2,0H3.4V0.2H3.2zM3.4,0H3.6V0.2H3.4zM3.6,0H3.8V0.2H3.6zM4.4,0H4.6V0.2H4.4zM4.6,0H4.8V0.2H4.6zM4.8,0H5V0.2H4.8zM5,0H5.2V0.2H5zM5.2,0H5.4V0.2H5.2zM5.4,0H5.6V0.2H5.4zM5.6,0H5.8V0.2H5.6zM0,0.2H0.2V0.4H0zM1.2,0.2H1.4V0.4H1.2zM1.6,0.2H1.8V0.4H1.6zM2.2,0.2H2.4V0.4H2.2zM2.4,0.2H2.6V0.4H2.4zM2.6,0.2H2.8V0.4H2.6zM2.8,0.2H3V0.4H2.8zM3,0.2H3.2V0.4H3zM3.8,0.2H4V0.4H3.8zM4.4,0.2H4.6V0.4H4.4zM5.6,0.2H5.8V0.4H5.6zM0,0.4H0.2V0.6H0zM0.4,0.4H0.6V0.6H0.4zM0.6,0.4H0.8V0.6H0.6zM0.8,0.4H1V0.6H0.8zM1.2,0.4H1.4V0.6H1.2zM1.6,0.4H1.8V0.6H1.6zM1.8,0.4H2V0.6H1.8zM2.4,0.4H2.6V0.6H2.4zM2.8,0.4H3V0.6H2.8zM3.4,0.4H3.6V0.6H3.4zM3.6,0.4H3.8V0.6H3.6zM3.8,0.4H4V0.6H3.8zM4,0.4H4.2V0.6H4zM4.4,0.4H4.6V0.6H4.4zM4.8,0.4H5V0.6H4.8zM5,0.4H5.2V0.6H5zM5.2,0.4H5.4V0.6H5.2zM5.6,0.4H5.8V0.6H5.6zM0,0.6H0.2V0.8H0zM0.4,0.6H0.6V0.8H0.4zM0.6,0.6H0.8V0.8H0.6zM0.8,0.6H1V0.8H0.8zM1.2,0.6H1.4V0.8H1.2zM1.6,0.6H1.8V0.8H1.6zM1.8,0.6H2V0.8H1.8zM2,0.6H2.2V0.8H2zM2.4,0.6H2.6V0.8H2.4zM3.8,0.6H4V0.8H3.8zM4.4,0.6H4.6V0.8H4.4zM4.8,0.6H5V0.8H4.8zM5,0.6H5.2V0.8H5zM5.2,0.6H5.4V0.8H5.2zM5.6,0.6H5.8V0.8H5.6zM0,0.8H0.2V1H0zM0.4,0.8H0.6V1H0.4zM0.6,0.8H0.8V1H0.6zM0.8,0.8H1V1H0.8zM1.2,0.8H1.4V1H1.2zM1.8,0.8H2V1H1.8zM2,0.8H2.2V1H2zM2.4,0.8H2.6V1H2.4zM3.4,0.8H3.6V1H3.4zM3.6,0.8H3.8V1H3.6zM4.4,0.8H4.6V1H4.4zM4.8,0.8H5V1H4.8zM5,0.8H5.2V1H5zM5.2,0.8H5.4V1H5.2zM5.6,0.8H5.8V1H5.6zM0,1H0.2V1.2H0zM1.2,1H1.4V1.2H1.2zM1.6,1H1.8V1.2H1.6zM1.8,1H2V1.2H1.8zM2,1H2.2V1.2H2zM3.2,1H3.4V1.2H3.2zM3.4,1H3.6V1.2H3.4zM3.8,1H4V1.2H3.8zM4.4,1H4.6V1.2H4.4zM5.6,1H5.8V1.2H5.6zM0,1.2H0.2V1.4H0zM0.2,1.2H0.4V1.4H0.2zM0.4,1.2H0.6V1.4H0.4zM0.6,1.2H0.8V1.4H0.6zM0.8,1.2H1V1.4H0.8zM1,1.2H1.2V1.4H1zM1.2,1.2H1.4V1.4H1.2zM1.6,1.2H1.8V1.4H1.6zM2,1.2H2.2V1.4H2zM2.4,1.2H2.6V1.4H2.4zM2.8,1.2H3V1.4H2.8zM3.2,1.2H3.4V1.4H3.2zM3.6,1.2H3.8V1.4H3.6zM4,1.2H4.2V1.4H4zM4.4,1.2H4.6V1.4H4.4zM4.6,1.2H4.8V1.4H4.6zM4.8,1.2H5V1.4H4.8zM5,1.2H5.2V1.4H5zM5.2,1.2H5.4V1.4H5.2zM5.4,1.2H5.6V1.4H5.4zM5.6,1.2H5.8V1.4H5.6zM2,1.4H2.2V1.6H2zM2.2,1.4H2.4V1.6H2.2zM2.6,1.4H2.8V1.6H2.6zM3,1.4H3.2V1.6H3zM3.2,1.4H3.4V1.6H3.2zM3.4,1.4H3.6V1.6H3.4zM3.6,1.4H3.8V1.6H3.6zM3.8,1.4H4V1.6H3.8zM0,1.6H0.2V1.8H0zM0.2,1.6H0.4V1.8H0.2zM0.8,1.6H1V1.8H0.8zM1,1.6H1.2V1.8H1zM1.2,1.6H1.4V1.8H1.2zM2,1.6H2.2V1.8H2zM2.4,1.6H2.6V1.8H2.4zM2.6,1.6H2.8V1.8H2.6zM3.4,1.6H3.6V1.8H3.4zM3.8,1.6H4V1.8H3.8zM4,1.6H4.2V1.8H4zM4.6,1.6H4.8V1.8H4.6zM5,1.6H5.2V1.8H5zM5.2,1.6H5.4V1.8H5.2zM5.4,1.6H5.6V1.8H5.4zM5.6,1.6H5.8V1.8H5.6zM0,1.8H0.2V2H0zM0.2,1.8H0.4V2H0.2zM0.4,1.8H0.6V2H0.4zM0.6,1.8H0.8V2H0.6zM2.6,1.8H2.8V2H2.6zM2.8,1.8H3V2H2.8zM3.2,1.8H3.4V2H3.2zM4.4,1.8H4.6V2H4.4zM4.6,1.8H4.8V2H4.6zM4.8,1.8H5V2H4.8zM5,1.8H5.2V2H5zM5.2,1.8H5.4V2H5.2zM5.4,1.8H5.6V2H5.4zM5.6,1.8H5.8V2H5.6zM0.8,2H1V2.2H0.8zM1,2H1.2V2.2H1zM1.2,2H1.4V2.2H1.2zM1.4,2H1.6V2.2H1.4zM1.6,2H1.8V2.2H1.6zM1.8,2H2V2.2H1.8zM2,2H2.2V2.2H2zM3.2,2H3.4V2.2H3.2zM3.4,2H3.6V2.2H3.4zM4.2,2H4.4V2.2H4.2zM4.4,2H4.6V2.2H4.4zM4.6,2H4.8V2.2H4.6zM4.8,2H5V2.2H4.8zM5.6,2H5.8V2.2H5.6zM0,2.2H0.2V2.4H0zM0.2,2.2H0.4V2.4H0.2zM0.4,2.2H0.6V2.4H0.4zM0.6,2.2H0.8V2.4H0.6zM1.6,2.2H1.8V2.4H1.6zM1.8,2.2H2V2.4H1.8zM2.4,2.2H2.6V2.4H2.4zM2.8,2.2H3V2.4H2.8zM3.4,2.2H3.6V2.4H3.4zM3.6,2.2H3.8V2.4H3.6zM3.8,2.2H4V2.4H3.8zM4,2.2H4.2V2.4H4zM4.4,2.2H4.6V2.4H4.4zM4.6,2.2H4.8V2.4H4.6zM5.4,2.2H5.6V2.4H5.4zM5.6,2.2H5.8V2.4H5.6zM0,2.4H0.2V2.6H0zM0.2,2.4H0.4V2.6H0.2zM1.2,2.4H1.4V2.6H1.2zM1.4,2.4H1.6V2.6H1.4zM1.6,2.4H1.8V2.6H1.6zM2.2,2.4H2.4V2.6H2.2zM2.6,2.4H2.8V2.6H2.6zM2.8,2.4H3V2.6H2.8zM3,2.4H3.2V2.6H3zM3.4,2.4H3.6V2.6H3.4zM4,2.4H4.2V2.6H4zM4.2,2.4H4.4V2.6H4.2zM5.4,2.4H5.6V2.6H5.4zM0.2,2.6H0.4V2.8H0.2zM0.4,2.6H0.6V2.8H0.4zM0.8,2.6H1V2.8H0.8zM1.6,2.6H1.8V2.8H1.6zM2,2.6H2.2V2.8H2zM2.4,2.6H2.6V2.8H2.4zM4,2.6H4.2V2.8H4zM4.2,2.6H4.4V2.8H4.2zM4.4,2.6H4.6V2.8H4.4zM4.6,2.6H4.8V2.8H4.6zM4.8,2.6H5V2.8H4.8zM5,2.6H5.2V2.8H5zM5.4,2.6H5.6V2.8H5.4zM5.6,2.6H5.8V2.8H5.6zM0.2,2.8H0.4V3H0.2zM0.4,2.8H0.6V3H0.4zM0.8,2.8H1V3H0.8zM1,2.8H1.2V3H1zM1.2,2.8H1.4V3H1.2zM1.4,2.8H1.6V3H1.4zM1.8,2.8H2V3H1.8zM2.2,2.8H2.4V3H2.2zM2.4,2.8H2.6V3H2.4zM2.6,2.8H2.8V3H2.6zM2.8,2.8H3V3H2.8zM3,2.8H3.2V3H3zM3.2,2.8H3.4V3H3.2zM4.2,2.8H4.4V3H4.2zM4.4,2.8H4.6V3H4.4zM5.2,2.8H5.4V3H5.2zM5.6,2.8H5.8V3H5.6zM0.4,3H0.6V3.2H0.4zM1,3H1.2V3.2H1zM1.4,3H1.6V3.2H1.4zM1.6,3H1.8V3.2H1.6zM1.8,3H2V3.2H1.8zM2,3H2.2V3.2H2zM2.2,3H2.4V3.2H2.2zM2.6,3H2.8V3.2H2.6zM3.2,3H3.4V3.2H3.2zM3.4,3H3.6V3.2H3.4zM4.2,3H4.4V3.2H4.2zM4.6,3H4.8V3.2H4.6zM4.8,3H5V3.2H4.8zM5.4,3H5.6V3.2H5.4zM5.6,3H5.8V3.2H5.6zM0,3.2H0.2V3.4H0zM0.8,3.2H1V3.4H0.8zM1,3.2H1.2V3.4H1zM1.2,3.2H1.4V3.4H1.2zM1.6,3.2H1.8V3.4H1.6zM2.4,3.2H2.6V3.4H2.4zM2.6,3.2H2.8V3.4H2.6zM3.2,3.2H3.4V3.4H3.2zM3.4,3.2H3.6V3.4H3.4zM3.6,3.2H3.8V3.4H3.6zM3.8,3.2H4V3.4H3.8zM4.2,3.2H4.4V3.4H4.2zM5,3.2H5.2V3.4H5zM5.4,3.2H5.6V3.4H5.4zM0,3.4H0.2V3.6H0zM0.6,3.4H0.8V3.6H0.6zM0.8,3.4H1V3.6H0.8zM1,3.4H1.2V3.6H1zM1.4,3.4H1.6V3.6H1.4zM1.6,3.4H1.8V3.6H1.6zM2.6,3.4H2.8V3.6H2.6zM2.8,3.4H3V3.6H2.8zM3,3.4H3.2V3.6H3zM3.4,3.4H3.6V3.6H3.4zM3.6,3.4H3.8V3.6H3.6zM4.2,3.4H4.4V3.6H4.2zM4.4,3.4H4.6V3.6H4.4zM4.6,3.4H4.8V3.6H4.6zM4.8,3.4H5V3.6H4.8zM5.4,3.4H5.6V3.6H5.4zM5.6,3.4H5.8V3.6H5.6zM0.6,3.6H0.8V3.8H0.6zM1.2,3.6H1.4V3.8H1.2zM1.4,3.6H1.6V3.8H1.4zM1.6,3.6H1.8V3.8H1.6zM3,3.6H3.2V3.8H3zM3.6,3.6H3.8V3.8H3.6zM4,3.6H4.2V3.8H4zM4.4,3.6H4.6V3.8H4.4zM4.6,3.6H4.8V3.8H4.6zM4.8,3.6H5V3.8H4.8zM5,3.6H5.2V3.8H5zM5.2,3.6H5.4V3.8H5.2zM5.6,3.6H5.8V3.8H5.6zM0.4,3.8H0.6V4H0.4zM0.8,3.8H1V4H0.8zM1,3.8H1.2V4H1zM2.4,3.8H2.6V4H2.4zM2.8,3.8H3V4H2.8zM3,3.8H3.2V4H3zM3.2,3.8H3.4V4H3.2zM3.4,3.8H3.6V4H3.4zM3.6,3.8H3.8V4H3.6zM4.2,3.8H4.4V4H4.2zM4.4,3.8H4.6V4H4.4zM4.8,3.8H5V4H4.8zM5.4,3.8H5.6V4H5.4zM5.6,3.8H5.8V4H5.6zM0,4H0.2V4.2H0zM0.2,4H0.4V4.2H0.2zM0.8,4H1V4.2H0.8zM1,4H1.2V4.2H1zM1.2,4H1.4V4.2H1.2zM1.4,4H1.6V4.2H1.4zM1.6,4H1.8V4.2H1.6zM2,4H2.2V4.2H2zM2.2,4H2.4V4.2H2.2zM2.6,4H2.8V4.2H2.6zM2.8,4H3V4.2H2.8zM3,4H3.2V4.2H3zM3.2,4H3.4V4.2H3.2zM3.4,4H3.6V4.2H3.4zM3.6,4H3.8V4.2H3.6zM4,4H4.2V4.2H4zM4.2,4H4.4V4.2H4.2zM4.4,4H4.6V4.2H4.4zM4.6,4H4.8V4.2H4.6zM4.8,4H5V4.2H4.8zM5,4H5.2V4.2H5zM5.6,4H5.8V4.2H5.6zM1.6,4.2H1.8V4.4H1.6zM2.4,4.2H2.6V4.4H2.4zM3,4.2H3.2V4.4H3zM3.4,4.2H3.6V4.4H3.4zM3.8,4.2H4V4.4H3.8zM4,4.2H4.2V4.4H4zM4.8,4.2H5V4.4H4.8zM5.6,4.2H5.8V4.4H5.6zM0,4.4H0.2V4.6H0zM0.2,4.4H0.4V4.6H0.2zM0.4,4.4H0.6V4.6H0.4zM0.6,4.4H0.8V4.6H0.6zM0.8,4.4H1V4.6H0.8zM1,4.4H1.2V4.6H1zM1.2,4.4H1.4V4.6H1.2zM1.8,4.4H2V4.6H1.8zM2,4.4H2.2V4.6H2zM2.2,4.4H2.4V4.6H2.2zM2.4,4.4H2.6V4.6H2.4zM2.6,4.4H2.8V4.6H2.6zM2.8,4.4H3V4.6H2.8zM3,4.4H3.2V4.6H3zM3.2,4.4H3.4V4.6H3.2zM3.4,4.4H3.6V4.6H3.4zM3.8,4.4H4V4.6H3.8zM4,4.4H4.2V4.6H4zM4.4,4.4H4.6V4.6H4.4zM4.8,4.4H5V4.6H4.8zM5,4.4H5.2V4.6H5zM5.2,4.4H5.4V4.6H5.2zM5.6,4.4H5.8V4.6H5.6zM0,4.6H0.2V4.8H0zM1.2,4.6H1.4V4.8H1.2zM1.6,4.6H1.8V4.8H1.6zM1.8,4.6H2V4.8H1.8zM2.2,4.6H2.4V4.8H2.2zM2.6,4.6H2.8V4.8H2.6zM3.2,4.6H3.4V4.8H3.2zM3.4,4.6H3.6V4.8H3.4zM3.6,4.6H3.8V4.8H3.6zM3.8,4.6H4V4.8H3.8zM4,4.6H4.2V4.8H4zM4.8,4.6H5V4.8H4.8zM5,4.6H5.2V4.8H5zM5.6,4.6H5.8V4.8H5.6zM0,4.8H0.2V5H0zM0.4,4.8H0.6V5H0.4zM0.6,4.8H0.8V5H0.6zM0.8,4.8H1V5H0.8zM1.2,4.8H1.4V5H1.2zM1.6,4.8H1.8V5H1.6zM1.8,4.8H2V5H1.8zM2.4,4.8H2.6V5H2.4zM2.6,4.8H2.8V5H2.6zM3.2,4.8H3.4V5H3.2zM3.4,4.8H3.6V5H3.4zM3.6,4.8H3.8V5H3.6zM3.8,4.8H4V5H3.8zM4,4.8H4.2V5H4zM4.2,4.8H4.4V5H4.2zM4.4,4.8H4.6V5H4.4zM4.6,4.8H4.8V5H4.6zM4.8,4.8H5V5H4.8zM5,4.8H5.2V5H5zM0,5H0.2V5.2H0zM0.4,5H0.6V5.2H0.4zM0.6,5H0.8V5.2H0.6zM0.8,5H1V5.2H0.8zM1.2,5H1.4V5.2H1.2zM2,5H2.2V5.2H2zM2.6,5H2.8V5.2H2.6zM2.8,5H3V5.2H2.8zM3,5H3.2V5.2H3zM4.2,5H4.4V5.2H4.2zM5.6,5H5.8V5.2H5.6zM0,5.2H0.2V5.4H0zM0.4,5.2H0.6V5.4H0.4zM0.6,5.2H0.8V5.4H0.6zM0.8,5.2H1V5.4H0.8zM1.2,5.2H1.4V5.4H1.2zM2,5.2H2.2V5.4H2zM3,5.2H3.2V5.4H3zM3.2,5.2H3.4V5.4H3.2zM3.4,5.2H3.6V5.4H3.4zM3.6,5.2H3.8V5.4H3.6zM4,5.2H4.2V5.4H4zM4.2,5.2H4.4V5.4H4.2zM5,5.2H5.2V5.4H5zM5.4,5.2H5.6V5.4H5.4zM5.6,5.2H5.8V5.4H5.6zM0,5.4H0.2V5.6H0zM1.2,5.4H1.4V5.6H1.2zM1.6,5.4H1.8V5.6H1.6zM1.8,5.4H2V5.6H1.8zM2.4,5.4H2.6V5.6H2.4zM2.8,5.4H3V5.6H2.8zM3,5.4H3.2V5.6H3zM3.2,5.4H3.4V5.6H3.2zM3.4,5.4H3.6V5.6H3.4zM3.6,5.4H3.8V5.6H3.6zM4,5.4H4.2V5.6H4zM4.2,5.4H4.4V5.6H4.2zM4.4,5.4H4.6V5.6H4.4zM5,5.4H5.2V5.6H5zM5.4,5.4H5.6V5.6H5.4zM5.6,5.4H5.8V5.6H5.6zM0,5.6H0.2V5.8H0zM0.2,5.6H0.4V5.8H0.2zM0.4,5.6H0.6V5.8H0.4zM0.6,5.6H0.8V5.8H0.6zM0.8,5.6H1V5.8H0.8zM1,5.6H1.2V5.8H1zM1.2,5.6H1.4V5.8H1.2zM1.6,5.6H1.8V5.8H1.6zM2.2,5.6H2.4V5.8H2.2zM2.6,5.6H2.8V5.8H2.6zM2.8,5.6H3V5.8H2.8zM3.2,5.6H3.4V5.8H3.2zM3.4,5.6H3.6V5.8H3.4zM3.6,5.6H3.8V5.8H3.6zM4,5.6H4.2V5.8H4zM4.2,5.6H4.4V5.8H4.2zM5,5.6H5.2V5.8H5zM5.4,5.6H5.6V5.8H5.4z" id="qr-path" fill="#000000" fill-opacity="1" fill-rule="nonzero" stroke="none" /></svg>