data:image/svg+xml;utf8,<svg width="8.7mm" height="8.7mm" version="1.1" viewBox="0 0 8.7 8.7" fill_color="black" back_color="white" xmlns="http://www.w3.org/2000/svg"><path d="M0.6,0.6H0.9V0.9H0.6zM0.9,0.6H1.2V0.9H0.9zM1.2,0.6H1.5V0.9H1.2zM1.5,0.6H1.8V0.9H1.5zM1.8,0.6H2.1V0.9H1.8zM2.1,0.6H2.4V0.9H2.1zM2.4,0.6H2.7V0.9H2.4zM3.6,0.6H3.9V0.9H3.6zM3.9,0.6H4.2V0.9H3.9zM4.2,0.6H4.5V0.9H4.2zM4.8,0.6H5.1V0.9H4.8zM6,0.6H6.3V0.9H6zM6.3,0.6H6.6V0.9H6.3zM6.6,0.6H6.9V0.9H6.6zM6.9,0.6H7.2V0.9H6.9zM7.2,0.6H7.5V0.9H7.2zM7.5,0.6H7.8V0.9H7.5zM7.8,0.6H8.1V0.9H7.8zM0.6,0.9H0.9V1.2H0.6zM2.4,0.9H2.7V1.2H2.4zM3,0.9H3.3V1.2H3zM3.3,0.9H3.6V1.2H3.3zM4.2,0.9H4.5V1.2H4.2zM4.8,0.9H5.1V1.2H4.8zM5.1,0.9H5.4V1.2H5.1zM6,0.9H6.3V1.2H6zM7.8,0.9H8.1V1.2H7.8zM0.6,1.2H0.9V1.5H0.6zM1.2,1.2H1.5V1.5H1.2zM1.5,1.2H1.8V1.5H1.5zM1.8,1.2H2.1V1.5H1.8zM2.4,1.2H2.7V1.5H2.4zM3.3,1.2H3.6V1.5H3.3zM3.6,1.2H3.9V1.5H3.6zM4.8,1.2H5.1V1.5H4.8zM6,1.2H6.3V1.5H6zM6.6,1.2H6.9V1.5H6.6zM6.9,1.2H7.2V1.5H6.9zM7.2,1.2H7.5V1.5H7.2zM7.8,1.2H8.1V1.5H7.8zM0.6,1.5H0.9V1.8H0.6zM1.2,1.5H1.5V1.8H1.2zM1.5,1.5H1.8V1.8H1.5zM1.8,1.5H2.1V1.8H1.8zM2.4,1.5H2.7V1.8H2.4zM3,1.5H3.3V1.8H3zM4.5,1.5H4.8V1.8H4.5zM5.4,1.5H5.7V1.8H5.4zM6,1.5H6.3V1.8H6zM6.6,1.5H6.9V1.8H6.6zM6.9,1.5H7.2V1.8H6.9zM7.2,1.5H7.5V1.8H7.2zM7.8,1.5H8.1V1.8H7.8zM0.6,1.8H0.9V2.1H0.6zM1.2,1.8H1.5V2.1H1.2zM1.5,1.8H1.8V2.1H1.5zM1.8,1.8H2.1V2.1H1.8zM2.4,1.8H2.7V2.1H2.4zM3.3,1.8H3.6V2.1H3.3zM3.6,1.8H3.9V2.1H3.6zM3.9,1.8H4.2V2.1H3.9zM4.2,1.8H4.5V2.1H4.2zM4.8,1.8H5.1V2.1H4.8zM6,1.8H6.3V2.1H6zM6.6,1.8H6.9V2.1H6.6zM6.9,1.8H7.2V2.1H6.9zM7.2,1.8H7.5V2.1H7.2zM7.8,1.8H8.1V2.1H7.8zM0.6,2.1H0.9V2.4H0.6zM2.4,2.1H2.7V2.4H2.4zM3,2.1H3.3V2.4H3zM3.3,2.1H3.6V2.4H3.3zM5.1,2.1H5.4V2.4H5.1zM6,2.1H6.3V2.4H6zM7.8,2.1H8.1V2.4H7.8zM0.6,2.4H0.9V2.7H0.6zM0.9,2.4H1.2V2.7H0.9zM1.2,2.4H1.5V2.7H1.2zM1.5,2.4H1.8V2.7H1.5zM1.8,2.4H2.1V2.7H1.8zM2.1,2.4H2.4V2.7H2.1zM2.4,2.4H2.7V2.7H2.4zM3,2.4H3.3V2.7H3zM3.6,2.4H3.9V2.7H3.6zM4.2,2.4H4.5V2.7H4.2zM4.8,2.4H5.1V2.7H4.8zM5.4,2.4H5.7V2.7H5.4zM6,2.4H6.3V2.7H6zM6.3,2.4H6.6V2.7H6.3zM6.6,2.4H6.9V2.7H6.6zM6.9,2.4H7.2V2.7H6.9zM7.2,2.4H7.5V2.7H7.2zM7.5,2.4H7.8V2.7H7.5zM7.8,2.4H8.1V2.7H7.8zM3.3,2.7H3.6V3H3.3zM3.6,2.7H3.9V3H3.6zM3.9,2.7H4.2V3H3.9zM5.1,2.7H5.4V3H5.1zM5.4,2.7H5.7V3H5.4zM0.6,3H0.9V3.3H0.6zM0.9,3H1.2V3.3H0.9zM1.2,3H1.5V3.3H1.2zM1.5,3H1.8V3.3H1.5zM1.8,3H2.1V3.3H1.8zM2.4,3H2.7V3.3H2.4zM2.7,3H3V3.3H2.7zM3,3H3.3V3.3H3zM3.3,3H3.6V3.3H3.3zM4.5,3H4.8V3.3H4.5zM5.1,3H5.4V3.3H5.1zM5.4,3H5.7V3.3H5.4zM5.7,3H6V3.3H5.7zM6.3,3H6.6V3.3H6.3zM6.9,3H7.2V3.3H6.9zM7.5,3H7.8V3.3H7.5zM0.6,3.3H0.9V3.6H0.6zM0.9,3.3H1.2V3.6H0.9zM1.8,3.3H2.1V3.6H1.8zM2.7,3.3H3V3.6H2.7zM3.9,3.3H4.2V3.6H3.9zM4.2,3.3H4.5V3.6H4.2zM4.8,3.3H5.1V3.6H4.8zM5.4,3.3H5.7V3.6H5.4zM6.3,3.3H6.6V3.6H6.3zM7.5,3.3H7.8V3.6H7.5zM0.6,3.6H0.9V3.9H0.6zM0.9,3.6H1.2V3.9H0.9zM1.2,3.6H1.5V3.9H1.2zM2.4,3.6H2.7V3.9H2.4zM2.7,3.6H3V3.9H2.7zM3,3.6H3.3V3.9H3zM3.6,3.6H3.9V3.9H3.6zM5.1,3.6H5.4V3.9H5.1zM5.4,3.6H5.7V3.9H5.4zM6,3.6H6.3V3.9H6zM6.3,3.6H6.6V3.9H6.3zM6.6,3.6H6.9V3.9H6.6zM6.9,3.6H7.2V3.9H6.9zM7.5,3.6H7.8V3.9H7.5zM7.8,3.6H8.1V3.9H7.8zM0.6,3.9H0.9V4.2H0.6zM1.2,3.9H1.5V4.2H1.2zM1.5,3.9H1.8V4.2H1.5zM1.8,3.9H2.1V4.2H1.8zM4.2,3.9H4.5V4.2H4.2zM5.7,3.9H6V4.2H5.7zM6.3,3.9H6.6V4.2H6.3zM6.6,3.9H6.9V4.2H6.6zM7.8,3.9H8.1V4.2H7.8zM0.6,4.2H0.9V4.5H0.6zM0.9,4.2H1.2V4.5H0.9zM2.4,4.2H2.7V4.5H2.4zM3,4.2H3.3V4.5H3zM3.3,4.2H3.6V4.5H3.3zM3.6,4.2H3.9V4.5H3.6zM3.9,4.2H4.2V4.5H3.9zM4.5,4.2H4.8V4.5H4.5zM5.1,4.2H5.4V4.5H5.1zM5.4,4.2H5.7V4.5H5.4zM5.7,4.2H6V4.5H5.7zM6,4.2H6.3V4.5H6zM6.6,4.2H6.9V4.5H6.6zM7.2,4.2H7.5V4.5H7.2zM7.5,4.2H7.8V4.5H7.5zM7.8,4.2H8.1V4.5H7.8zM0.6,4.5H0.9V4.8H0.6zM0.9,4.5H1.2V4.8H0.9zM1.2,4.5H1.5V4.8H1.2zM1.5,4.5H1.8V4.8H1.5zM1.8,4.5H2.1V4.8H1.8zM3.3,4.5H3.6V4.8H3.3zM3.9,4.5H4.2V4.8H3.9zM4.2,4.5H4.5V4.8H4.2zM4.8,4.5H5.1V4.8H4.8zM5.4,4.5H5.7V4.8H5.4zM6.3,4.5H6.6V4.8H6.3zM6.9,4.5H7.2V4.8H6.9zM7.5,4.5H7.8V4.8H7.5zM0.6,4.8H0.9V5.1H0.6zM1.5,4.8H1.8V5.1H1.5zM1.8,4.8H2.1V5.1H1.8zM2.4,4.8H2.7V5.1H2.4zM2.7,4.8H3V5.1H2.7zM3,4.8H3.3V5.1H3zM3.3,4.8H3.6V5.1H3.3zM3.6,4.8H3.9V5.1H3.6zM5.1,4.8H5.4V5.1H5.1zM5.4,4.8H5.7V5.1H5.4zM6,4.8H6.3V5.1H6zM6.9,4.8H7.2V5.1H6.9zM7.5,4.8H7.8V5.1H7.5zM7.8,4.8H8.1V5.1H7.8zM0.6,5.1H0.9V5.4H0.6zM1.2,5.1H1.5V5.4H1.2zM1.5,5.1H1.8V5.4H1.5zM1.8,5.1H2.1V5.4H1.8zM2.1,5.1H2.4V5.4H2.1zM3.3,5.1H3.6V5.4H3.3zM4.2,5.1H4.5V5.4H4.2zM5.4,5.1H5.7V5.4H5.4zM5.7,5.1H6V5.4H5.7zM6,5.1H6.3V5.4H6zM6.3,5.1H6.6V5.4H6.3zM6.6,5.1H6.9V5.4H6.6zM6.9,5.1H7.2V5.4H6.9zM7.8,5.1H8.1V5.4H7.8zM0.6,5.4H0.9V5.7H0.6zM1.2,5.4H1.5V5.7H1.2zM1.5,5.4H1.8V5.7H1.5zM1.8,5.4H2.1V5.7H1.8zM2.4,5.4H2.7V5.7H2.4zM2.7,5.4H3V5.7H2.7zM4.5,5.4H4.8V5.7H4.5zM5.4,5.4H5.7V5.7H5.4zM5.7,5.4H6V5.7H5.7zM6,5.4H6.3V5.7H6zM6.3,5.4H6.6V5.7H6.3zM6.6,5.4H6.9V5.7H6.6zM7.2,5.4H7.5V5.7H7.2zM3,5.7H3.3V6H3zM3.3,5.7H3.6V6H3.3zM3.6,5.7H3.9V6H3.6zM3.9,5.7H4.2V6H3.9zM4.2,5.7H4.5V6H4.2zM4.5,5.7H4.8V6H4.5zM5.1,5.7H5.4V6H5.1zM5.4,5.7H5.7V6H5.4zM6.6,5.7H6.9V6H6.6zM6.9,5.7H7.2V6H6.9zM7.2,5.7H7.5V6H7.2zM0.6,6H0.9V6.3H0.6zM0.9,6H1.2V6.3H0.9zM1.2,6H1.5V6.3H1.2zM1.5,6H1.8V6.3H1.5zM1.8,6H2.1V6.3H1.8zM2.1,6H2.4V6.3H2.1zM2.4,6H2.7V6.3H2.4zM3,6H3.3V6.3H3zM4.5,6H4.8V6.3H4.5zM4.8,6H5.1V6.3H4.8zM5.4,6H5.7V6.3H5.4zM6,6H6.3V6.3H6zM6.6,6H6.9V6.3H6.6zM6.9,6H7.2V6.3H6.9zM7.2,6H7.5V6.3H7.2zM7.5,6H7.8V6.3H7.5zM7.8,6H8.1V6.3H7.8zM0.6,6.3H0.9V6.6H0.6zM2.4,6.3H2.7V6.6H2.4zM3.3,6.3H3.6V6.6H3.3zM3.6,6.3H3.9V6.6H3.6zM3.9,6.3H4.2V6.6H3.9zM4.8,6.3H5.1V6.6H4.8zM5.4,6.3H5.7V6.6H5.4zM6.6,6.3H6.9V6.6H6.6zM6.9,6.3H7.2V6.6H6.9zM7.5,6.3H7.8V6.6H7.5zM0.6,6.6H0.9V6.9H0.6zM1.2,6.6H1.5V6.9H1.2zM1.5,6.6H1.8V6.9H1.5zM1.8,6.6H2.1V6.9H1.8zM2.4,6.6H2.7V6.9H2.4zM3,6.6H3.3V6.9H3zM3.3,6.6H3.6V6.9H3.3zM3.6,6.6H3.9V6.9H3.6zM3.9,6.6H4.2V6.9H3.9zM4.2,6.6H4.5V6.9H4.2zM4.5,6.6H4.8V6.9H4.5zM4.8,6.6H5.1V6.9H4.8zM5.1,6.6H5.4V6.9H5.1zM5.4,6.6H5.7V6.9H5.4zM5.7,6.6H6V6.9H5.7zM6,6.6H6.3V6.9H6zM6.3,6.6H6.6V6.9H6.3zM6.6,6.6H6.9V6.9H6.6zM6.9,6.6H7.2V6.9H6.9zM7.2,6.6H7.5V6.9H7.2zM7.5,6.6H7.8V6.9H7.5zM0.6,6.9H0.9V7.2H0.6zM1.2,6.9H1.5V7.2H1.2zM1.5,6.9H1.8V7.2H1.5zM1.8,6.9H2.1V7.2H1.8zM2.4,6.9H2.7V7.2H2.4zM3,6.9H3.3V7.2H3zM3.3,6.9H3.6V7.2H3.3zM3.6,6.9H3.9V7.2H3.6zM3.9,6.9H4.2V7.2H3.9zM4.2,6.9H4.5V7.2H4.2zM4.8,6.9H5.1V7.2H4.8zM5.1,6.9H5.4V7.2H5.1zM5.7,6.9H6V7.2H5.7zM6,6.9H6.3V7.2H6zM6.6,6.9H6.9V7.2H6.6zM7.2,6.9H7.5V7.2H7.2zM7.5,6.9H7.8V7.2H7.5zM7.8,6.9H8.1V7.2H7.8zM0.6,7.2H0.9V7.5H0.6zM1.2,7.2H1.5V7.5H1.2zM1.5,7.2H1.8V7.5H1.5zM1.8,7.2H2.1V7.5H1.8zM2.4,7.2H2.7V7.5H2.4zM3,7.2H3.3V7.5H3zM3.3,7.2H3.6V7.5H3.3zM3.6,7.2H3.9V7.5H3.6zM4.2,7.2H4.5V7.5H4.2zM5.1,7.2H5.4V7.5H5.1zM5.4,7.2H5.7V7.5H5.4zM6.3,7.2H6.6V7.5H6.3zM7.2,7.2H7.5V7.5H7.2zM7.8,7.2H8.1V7.5H7.8zM0.6,7.5H0.9V7.8H0.6zM2.4,7.5H2.7V7.8H2.4zM3,7.5H3.3V7.8H3zM3.3,7.5H3.6V7.8H3.3zM3.9,7.5H4.2V7.8H3.9zM4.2,7.5H4.5V7.8H4.2zM4.8,7.5H5.1V7.8H4.8zM5.1,7.5H5.4V7.8H5.1zM5.4,7.5H5.7V7.8H5.4zM5.7,7.5H6V7.8H5.7zM6.3,7.5H6.6V7.8H6.3zM6.6,7.5H6.9V7.8H6.6zM6.9,7.5H7.2V7.8H6.9zM7.8,7.5H8.1V7.8H7.8zM0.6,7.8H0.9V8.1H0.6zM0.9,7.8H1.2V8.1H0.9zM1.2,7.8H1.5V8.1H1.2zM1.5,7.8H1.8V8.1H1.5zM1.8,7.8H2.1V8.1H1.8zM2.1,7.8H2.4V8.1H2.1zM2.4,7.8H2.7V8.1H2.4zM3,7.8H3.3V8.1H3zM3.6,7.8H3.9V8.1H3.6zM4.5,7.8H4.8V8.1H4.5zM4.8,7.8H5.1V8.1H4.8zM6,7.8H6.3V8.1H6zM6.3,7.8H6.6V8.1H6.3zM6.6,7.8H6.9V8.1H6.6zM6.9,7.8H7.2V8.1H6.9zM7.2,7.8H7.5V8.1H7.2zM7.5,7.8H7.8V8.1H7.5zM7.8,7.8H8.1V8.1H7.8z" id="qr-path" fill="#000000" fill-opacity="1" fill-rule="nonzero" stroke="none"/></svg>